<mxfile host="app.diagrams.net" modified="2023-12-10T15:36:12.470Z" agent="Mozilla/5.0 (Macintosh; Intel Mac OS X 10_15_7) AppleWebKit/537.36 (KHTML, like Gecko) Chrome/119.0.0.0 Safari/537.36" version="22.1.7" etag="Y-9iS5BgnbY6udBR8MZ1" type="github">
  <diagram name="Page-1" id="eJcE3mCpdyMrko_Z4Ori">
    <mxGraphModel>
      <root>
        <mxCell id="0" />
        <mxCell id="1" parent="0" />
      </root>
    </mxGraphModel>
  </diagram>
</mxfile>
